<svg width="32" height="32" viewBox="0 0 32 32" fill="none" xmlns="http://www.w3.org/2000/svg">
<rect width="32" height="32" fill="#3D3E56"/>
<path d="M8.63764 13.81L8.08694 13.2527C7.53742 12.6966 7.53742 11.7953 8.08694 11.2396L17.2169 2L18.7623 3.56386L8.63764 13.81ZM20.9471 5.77477L19.4017 4.21091L9.27666 14.4567L10.822 16.0205L20.9471 5.77477ZM23.1315 7.98529L21.5861 6.42143L11.4615 16.6672L13.0068 18.231L23.1315 7.98529Z" fill="white"/>
<path d="M10.3037 25.5093L8.75832 23.9455L18.883 13.6997L20.4284 15.2636L10.3037 25.5093ZM22.6132 17.4741L21.0678 15.9102L10.9427 26.156L12.4881 27.7198L22.6132 17.4741ZM23.8029 18.678L23.2522 18.1207L13.1275 28.3665L14.6729 29.9303L23.8029 20.6912C24.3524 20.1351 24.3524 19.2337 23.8029 18.678Z" fill="white"/>
</svg>
