<svg width="32" height="33" viewBox="0 0 32 33" fill="none" xmlns="http://www.w3.org/2000/svg">
<path d="M22.468 0.609375H9.53395C4.27745 0.609375 0.000976562 4.88585 0.000976562 10.1423V23.0764C0.000976562 28.3329 4.27745 32.6094 9.53395 32.6094H22.468C27.7245 32.6094 32.001 28.3329 32.001 23.0764V10.1423C32.0009 4.88585 27.7244 0.609375 22.468 0.609375ZM28.7818 23.0764C28.7818 26.5634 25.955 29.3902 22.468 29.3902H9.53395C6.04698 29.3902 3.22018 26.5634 3.22018 23.0764V10.1423C3.22018 6.65532 6.04698 3.82857 9.53395 3.82857H22.468C25.955 3.82857 28.7818 6.65532 28.7818 10.1423V23.0764Z" fill="url(#paint0_linear_302_6519)"/>
<path d="M16.0008 8.33333C11.4372 8.33333 7.72441 12.0461 7.72441 16.6096C7.72441 21.1731 11.4372 24.886 16.0008 24.886C20.5643 24.886 24.2771 21.1732 24.2771 16.6096C24.2771 12.046 20.5643 8.33333 16.0008 8.33333ZM16.0008 21.6668C13.2077 21.6668 10.9436 19.4027 10.9436 16.6097C10.9436 13.8167 13.2078 11.5525 16.0008 11.5525C18.7938 11.5525 21.0579 13.8167 21.0579 16.6097C21.0579 19.4026 18.7937 21.6668 16.0008 21.6668Z" fill="url(#paint1_linear_302_6519)"/>
<path d="M24.2933 10.3789C25.3886 10.3789 26.2765 9.49096 26.2765 8.39568C26.2765 7.3004 25.3886 6.4125 24.2933 6.4125C23.198 6.4125 22.3101 7.3004 22.3101 8.39568C22.3101 9.49096 23.198 10.3789 24.2933 10.3789Z" fill="url(#paint2_linear_302_6519)"/>
<defs>
<linearGradient id="paint0_linear_302_6519" x1="16.001" y1="32.5162" x2="16.001" y2="0.857924" gradientUnits="userSpaceOnUse">
<stop stop-color="#E09B3D"/>
<stop offset="0.3" stop-color="#C74C4D"/>
<stop offset="0.6" stop-color="#C21975"/>
<stop offset="1" stop-color="#7024C4"/>
</linearGradient>
<linearGradient id="paint1_linear_302_6519" x1="16.001" y1="47.361" x2="16.001" y2="-13.8417" gradientUnits="userSpaceOnUse">
<stop stop-color="#E09B3D"/>
<stop offset="0.3" stop-color="#C74C4D"/>
<stop offset="0.6" stop-color="#C21975"/>
<stop offset="1" stop-color="#7024C4"/>
</linearGradient>
<linearGradient id="paint2_linear_302_6519" x1="24.2933" y1="32.5167" x2="24.2933" y2="0.858434" gradientUnits="userSpaceOnUse">
<stop stop-color="#E09B3D"/>
<stop offset="0.3" stop-color="#C74C4D"/>
<stop offset="0.6" stop-color="#C21975"/>
<stop offset="1" stop-color="#7024C4"/>
</linearGradient>
</defs>
</svg>
