<svg width="14" height="15" viewBox="0 0 14 15" fill="none" xmlns="http://www.w3.org/2000/svg">
<path d="M11.6906 9.73163L10.041 9.54328C9.64482 9.49782 9.25514 9.63421 8.97587 9.91348L7.78087 11.1085C5.9429 10.1733 4.43616 8.67301 3.50094 6.82855L4.70243 5.62705C4.9817 5.34778 5.11809 4.95811 5.07263 4.56194L4.88428 2.9253C4.80635 2.26935 4.25431 1.77576 3.59186 1.77576H2.4683C1.73441 1.77576 1.12392 2.38625 1.16938 3.12014C1.51359 8.66651 5.9494 13.0958 11.4893 13.44C12.2232 13.4855 12.8337 12.875 12.8337 12.1411V11.0176C12.8402 10.3616 12.3466 9.80956 11.6906 9.73163Z" fill="#868686"/>
</svg>
