<svg width="24" height="25" viewBox="0 0 24 25" fill="none" xmlns="http://www.w3.org/2000/svg">
<path d="M13 5.60938C13 5.05709 12.5523 4.60938 12 4.60938C11.4477 4.60938 11 5.05709 11 5.60938V11.6093L5 11.6093C4.44772 11.6093 4 12.057 4 12.6093C4 13.1616 4.44771 13.6093 5 13.6093L11 13.6093V19.6094C11 20.1617 11.4477 20.6094 12 20.6094C12.5523 20.6094 13 20.1617 13 19.6094V13.6093L19 13.6093C19.5523 13.6093 20 13.1616 20 12.6093C20 12.057 19.5523 11.6093 19 11.6093L13 11.6093V5.60938Z" fill="#F4F3F7"/>
</svg>
